<svg xmlns="http://www.w3.org/2000/svg" viewBox="0 0 64 64" fill="none">
  <defs>
    <linearGradient id="g" x1="0" y1="0" x2="1" y2="1">
      <stop offset="0%" stop-color="#a855f7"/>
      <stop offset="100%" stop-color="#3b82f6"/>
    </linearGradient>
  </defs>
  <rect width="64" height="64" rx="14" fill="#080012"/>
  <!-- Mini crystal tesseract -->
  <polygon points="32,14 42,22 38,34 26,34 22,22" fill="none" stroke="url(#g)" stroke-width="1.8" stroke-linejoin="round" opacity="0.7"/>
  <polygon points="32,14 36,12 46,20 42,22" fill="none" stroke="url(#g)" stroke-width="1.2" stroke-linejoin="round" opacity="0.5"/>
  <polygon points="22,22 26,20 38,34 34,36" fill="none" stroke="url(#g)" stroke-width="1.2" stroke-linejoin="round" opacity="0.5"/>
  <polygon points="38,34 46,20 50,30 42,44" fill="none" stroke="url(#g)" stroke-width="1.2" stroke-linejoin="round" opacity="0.4"/>
  <polygon points="26,34 34,36 42,44 34,42" fill="none" stroke="url(#g)" stroke-width="1" stroke-linejoin="round" opacity="0.3"/>
  <!-- Crystal core -->
  <path d="M32 26 L36 32 L32 38 L28 32 Z" fill="url(#g)" opacity="0.9"/>
  <path d="M32 28 L35 32 L32 36 L29 32 Z" fill="#fff" opacity="0.6"/>
</svg>
